# xmcd
#
# Track frame offsets: 
#        150
#        13965
#        30775
#        47780
#        65948
#        80963
#        95688
#        111260
#        132458
#        150333
#        174093
#        193028
#        208333
#
# Disc length: 2963 seconds
#
# Revision: 6
# Processed by: cddbd v1.5.2PL0 Copyright (c) Steve Scherf et al.
# Submitted via: ExactAudioCopyFreeDBPlugin 1.0
#
DISCID=b80b910d
DTITLE=Grant and Forsyth - More Country Love Songs
DYEAR=1993
DGENRE=Country
TTITLE0=Lady Bird
TTITLE1=Love On The Rocks
TTITLE2=Rawhide Medley
TTITLE3=A Love Worth Fighting For
TTITLE4=Walk Of Life
TTITLE5=Let It Be Me
TTITLE6=Why Not me
TTITLE7=She Believes In Me
TTITLE8=What Is Life
TTITLE9=Slow Medley
TTITLE10=The Night They Drove Old Dixy Down
TTITLE11=Storybook Children
TTITLE12=Old Country Road
EXTD=
EXTT0=
EXTT1=
EXTT2=
EXTT3=
EXTT4=
EXTT5=
EXTT6=
EXTT7=
EXTT8=
EXTT9=
EXTT10=
EXTT11=
EXTT12=
PLAYORDER=
